<mxfile host="app.diagrams.net" agent="Mozilla/5.0 (Windows NT 10.0; Win64; x64) AppleWebKit/537.36 (KHTML, like Gecko) Chrome/140.0.0.0 Safari/537.36" version="28.2.5">
  <diagram name="Page-1" id="RahOJFnQkHqupawmUpDo">
    <mxGraphModel dx="1042" dy="508" grid="1" gridSize="10" guides="1" tooltips="1" connect="1" arrows="1" fold="1" page="1" pageScale="1" pageWidth="850" pageHeight="1100" background="#ffffff" math="0" shadow="0">
      <root>
        <mxCell id="0" />
        <mxCell id="1" parent="0" />
        <mxCell id="pdZdbXVG_pcG6PQis-wp-9" value="" style="endArrow=classic;html=1;rounded=0;" edge="1" parent="1">
          <mxGeometry width="50" height="50" relative="1" as="geometry">
            <mxPoint x="250" y="100" as="sourcePoint" />
            <mxPoint x="250" y="140" as="targetPoint" />
          </mxGeometry>
        </mxCell>
        <mxCell id="pdZdbXVG_pcG6PQis-wp-10" value="NEW USERS?" style="rhombus;whiteSpace=wrap;html=1;fillColor=light-dark(#FFFFFF,#FF9999);fontColor=light-dark(#000000,#000000);" vertex="1" parent="1">
          <mxGeometry x="200" y="140" width="100" height="80" as="geometry" />
        </mxCell>
        <mxCell id="pdZdbXVG_pcG6PQis-wp-11" value="" style="endArrow=classic;html=1;rounded=0;exitX=0.5;exitY=1;exitDx=0;exitDy=0;" edge="1" parent="1" source="pdZdbXVG_pcG6PQis-wp-10">
          <mxGeometry width="50" height="50" relative="1" as="geometry">
            <mxPoint x="240" y="230" as="sourcePoint" />
            <mxPoint x="250" y="270" as="targetPoint" />
          </mxGeometry>
        </mxCell>
        <mxCell id="pdZdbXVG_pcG6PQis-wp-12" value="Recognize" style="shape=parallelogram;perimeter=parallelogramPerimeter;whiteSpace=wrap;html=1;fixedSize=1;fillColor=light-dark(#FFFFFF,#FF9999);fontColor=light-dark(#000000,#000000);" vertex="1" parent="1">
          <mxGeometry x="190" y="270" width="120" height="60" as="geometry" />
        </mxCell>
        <mxCell id="pdZdbXVG_pcG6PQis-wp-13" value="" style="endArrow=classic;html=1;rounded=0;exitX=0.5;exitY=1;exitDx=0;exitDy=0;" edge="1" parent="1" source="pdZdbXVG_pcG6PQis-wp-12">
          <mxGeometry width="50" height="50" relative="1" as="geometry">
            <mxPoint x="260" y="400" as="sourcePoint" />
            <mxPoint x="250" y="370" as="targetPoint" />
          </mxGeometry>
        </mxCell>
        <mxCell id="pdZdbXVG_pcG6PQis-wp-14" value="Face Recongine" style="rhombus;whiteSpace=wrap;html=1;fillColor=light-dark(#FFFFFF,#FF9999);fontColor=light-dark(#000000,#000000);" vertex="1" parent="1">
          <mxGeometry x="200" y="370" width="100" height="80" as="geometry" />
        </mxCell>
        <mxCell id="pdZdbXVG_pcG6PQis-wp-15" value="" style="endArrow=classic;html=1;rounded=0;exitX=0.5;exitY=1;exitDx=0;exitDy=0;" edge="1" parent="1" source="pdZdbXVG_pcG6PQis-wp-14">
          <mxGeometry width="50" height="50" relative="1" as="geometry">
            <mxPoint x="270" y="530" as="sourcePoint" />
            <mxPoint x="245" y="500" as="targetPoint" />
          </mxGeometry>
        </mxCell>
        <mxCell id="pdZdbXVG_pcG6PQis-wp-16" value="stored in csv file" style="shape=parallelogram;perimeter=parallelogramPerimeter;whiteSpace=wrap;html=1;fixedSize=1;fillColor=light-dark(#FFFFFF,#FF9999);fontColor=light-dark(#000000,#000000);" vertex="1" parent="1">
          <mxGeometry x="190" y="500" width="120" height="60" as="geometry" />
        </mxCell>
        <mxCell id="pdZdbXVG_pcG6PQis-wp-17" value="" style="endArrow=classic;html=1;rounded=0;exitX=0.413;exitY=0.967;exitDx=0;exitDy=0;exitPerimeter=0;" edge="1" parent="1" source="pdZdbXVG_pcG6PQis-wp-16">
          <mxGeometry width="50" height="50" relative="1" as="geometry">
            <mxPoint x="210" y="660" as="sourcePoint" />
            <mxPoint x="240" y="610" as="targetPoint" />
          </mxGeometry>
        </mxCell>
        <mxCell id="pdZdbXVG_pcG6PQis-wp-18" value="END" style="ellipse;whiteSpace=wrap;html=1;fillColor=light-dark(#FFFFFF,#FF9999);fontColor=light-dark(#000000,#000000);" vertex="1" parent="1">
          <mxGeometry x="185" y="610" width="120" height="80" as="geometry" />
        </mxCell>
        <mxCell id="pdZdbXVG_pcG6PQis-wp-20" value="" style="endArrow=classic;html=1;rounded=0;entryX=1;entryY=0;entryDx=0;entryDy=0;" edge="1" parent="1" target="pdZdbXVG_pcG6PQis-wp-12">
          <mxGeometry width="50" height="50" relative="1" as="geometry">
            <mxPoint x="380" y="270" as="sourcePoint" />
            <mxPoint x="450" y="270" as="targetPoint" />
          </mxGeometry>
        </mxCell>
        <mxCell id="pdZdbXVG_pcG6PQis-wp-21" value="" style="endArrow=classic;html=1;rounded=0;" edge="1" parent="1">
          <mxGeometry width="50" height="50" relative="1" as="geometry">
            <mxPoint x="300" y="180" as="sourcePoint" />
            <mxPoint x="370" y="180" as="targetPoint" />
          </mxGeometry>
        </mxCell>
        <mxCell id="pdZdbXVG_pcG6PQis-wp-33" value="yes" style="edgeLabel;html=1;align=center;verticalAlign=middle;resizable=0;points=[];" vertex="1" connectable="0" parent="pdZdbXVG_pcG6PQis-wp-21">
          <mxGeometry x="-0.0457" y="5" relative="1" as="geometry">
            <mxPoint as="offset" />
          </mxGeometry>
        </mxCell>
        <mxCell id="pdZdbXVG_pcG6PQis-wp-26" value="store the face data" style="rounded=0;whiteSpace=wrap;html=1;fillColor=light-dark(#FFFFFF,#FF9999);fontColor=light-dark(#000000,#000000);" vertex="1" parent="1">
          <mxGeometry x="380" y="240" width="120" height="60" as="geometry" />
        </mxCell>
        <mxCell id="pdZdbXVG_pcG6PQis-wp-27" value="" style="endArrow=none;html=1;rounded=0;" edge="1" parent="1" source="pdZdbXVG_pcG6PQis-wp-14">
          <mxGeometry width="50" height="50" relative="1" as="geometry">
            <mxPoint x="300" y="460" as="sourcePoint" />
            <mxPoint x="550" y="400" as="targetPoint" />
          </mxGeometry>
        </mxCell>
        <mxCell id="pdZdbXVG_pcG6PQis-wp-28" value="" style="endArrow=classic;html=1;rounded=0;" edge="1" parent="1">
          <mxGeometry width="50" height="50" relative="1" as="geometry">
            <mxPoint x="550" y="400" as="sourcePoint" />
            <mxPoint x="440" y="140" as="targetPoint" />
            <Array as="points">
              <mxPoint x="550" y="110" />
              <mxPoint x="440" y="110" />
            </Array>
          </mxGeometry>
        </mxCell>
        <mxCell id="pdZdbXVG_pcG6PQis-wp-29" value="START" style="ellipse;whiteSpace=wrap;html=1;fillColor=light-dark(#FFFFFF,#FF9999);fontColor=light-dark(#000000,#000000);" vertex="1" parent="1">
          <mxGeometry x="190" y="20" width="120" height="80" as="geometry" />
        </mxCell>
        <mxCell id="pdZdbXVG_pcG6PQis-wp-32" value="Give&amp;nbsp; your photo" style="rounded=0;html=1;fillColor=light-dark(#000000,#FF9999);fontColor=light-dark(#000000,#000000);" vertex="1" parent="1">
          <mxGeometry x="380" y="150" width="120" height="60" as="geometry" />
        </mxCell>
        <mxCell id="pdZdbXVG_pcG6PQis-wp-35" value="no" style="text;html=1;align=center;verticalAlign=middle;resizable=0;points=[];autosize=1;strokeColor=none;fillColor=none;" vertex="1" parent="1">
          <mxGeometry x="350" y="378" width="40" height="30" as="geometry" />
        </mxCell>
        <mxCell id="pdZdbXVG_pcG6PQis-wp-37" value="yes" style="text;html=1;align=center;verticalAlign=middle;resizable=0;points=[];autosize=1;strokeColor=none;fillColor=none;" vertex="1" parent="1">
          <mxGeometry x="210" y="468" width="40" height="30" as="geometry" />
        </mxCell>
        <mxCell id="pdZdbXVG_pcG6PQis-wp-38" value="no" style="text;html=1;align=center;verticalAlign=middle;resizable=0;points=[];autosize=1;strokeColor=none;fillColor=none;" vertex="1" parent="1">
          <mxGeometry x="210" y="228" width="40" height="30" as="geometry" />
        </mxCell>
      </root>
    </mxGraphModel>
  </diagram>
</mxfile>
